<svg xmlns="http://www.w3.org/2000/svg" width="42.817" height="30.871" viewBox="0 0 42.817 30.871"><defs><style>.a{fill:#1174ce;}.b{fill:#0f549d;}.c{fill:#02375e;}.d{fill:#146643;}.e{fill:#1bcc38;}.f{fill:#329947;}.g{fill:#e20e37;}.h{fill:#b41f36;}.i{fill:#720a1e;}</style></defs><g transform="translate(-219.654 -227.563)"><path class="a" d="M225.524,227.563a5.544,5.544,0,0,0-5.87,5.871v10.635a3.175,3.175,0,0,0,3.177,2.279,2.822,2.822,0,0,0,2.97-2.763V238.2h4.7v5.318c0,2.97-3.8,4.489-6.561,4.489a7.109,7.109,0,0,1-4.213-1.312v11.741h7.459a5.976,5.976,0,0,0,5.663-5.663V227.563Z" transform="translate(0 0)"/><path class="b" d="M219.654,233.434v10.635a3.175,3.175,0,0,0,3.177,2.279,2.822,2.822,0,0,0,2.97-2.763V238.2h4.7v5.318c0,2.97-3.8,4.489-6.561,4.489a7.109,7.109,0,0,1-4.213-1.312v11.741h7.459a5.976,5.976,0,0,0,5.663-5.663V227.563" transform="translate(0 0)"/><path class="c" d="M230.427,241.645v5.318c0,2.97-3.8,4.489-6.561,4.489a7.107,7.107,0,0,1-4.212-1.312V261.88h7.458a5.976,5.976,0,0,0,5.663-5.663" transform="translate(0 -3.446)"/><path class="d" d="M261.99,251.223h3.246a1.588,1.588,0,1,0,0-3.177H261.99Z" transform="translate(-10.361 -5.013)"/><path class="e" d="M264.912,227.563a5.491,5.491,0,0,0-5.871,5.8V238.2h8.7a2.279,2.279,0,0,1,0,4.558,2.34,2.34,0,0,1,2.486,2.21,2.3,2.3,0,0,1-2.486,2.21h-8.771v11.257h7.458a5.976,5.976,0,0,0,5.663-5.663V227.563Z" transform="translate(-9.623 0)"/><path class="f" d="M258.973,233.434V238.2h8.7a2.279,2.279,0,1,1,0,4.558,2.34,2.34,0,0,1,2.486,2.21,2.3,2.3,0,0,1-2.486,2.21h-8.7v11.257h7.458a5.976,5.976,0,0,0,5.663-5.663V227.563" transform="translate(-9.623 0)"/><g transform="translate(249.35 239.165)"><path class="d" d="M269.954,244.662a2.3,2.3,0,0,1-2.279,2.279,2.34,2.34,0,0,1,2.486,2.21,2.3,2.3,0,0,1-2.486,2.21h-8.7v11.257h7.458a5.976,5.976,0,0,0,5.663-5.663" transform="translate(-258.973 -243.35)"/><path class="d" d="M266.756,244.513a1.655,1.655,0,0,0-1.588-1.588H261.99v3.108h3.246A1.534,1.534,0,0,0,266.756,244.513Z" transform="translate(-259.711 -242.925)"/></g><path class="g" d="M245.092,227.563a5.491,5.491,0,0,0-5.87,5.8V239.3a4.711,4.711,0,0,1,2.97-1.174h7.873v1.658a24.541,24.541,0,0,0-4.558-.622,3.522,3.522,0,1,0,0,7.044,23.214,23.214,0,0,0,4.558-.553v1.52h-7.873a4.237,4.237,0,0,1-2.97-1.174v12.431h7.458a5.976,5.976,0,0,0,5.663-5.663V227.563Z" transform="translate(-4.789 0)"/><path class="h" d="M239.222,233.434v5.939a4.71,4.71,0,0,1,2.97-1.174h7.873v1.657a24.607,24.607,0,0,0-4.558-.622,3.522,3.522,0,1,0,0,7.044,23.258,23.258,0,0,0,4.558-.552v1.45h-7.873a4.237,4.237,0,0,1-2.97-1.174v12.431h7.458a5.976,5.976,0,0,0,5.663-5.663V227.563" transform="translate(-4.789 0)"/><path class="i" d="M250.065,241.645V243.3a24.607,24.607,0,0,0-4.558-.622,3.522,3.522,0,1,0,0,7.044,23.257,23.257,0,0,0,4.558-.552v1.45h-7.873a4.237,4.237,0,0,1-2.97-1.174V261.88h7.458a5.976,5.976,0,0,0,5.663-5.663" transform="translate(-4.789 -3.446)"/></g></svg>