<svg xmlns="http://www.w3.org/2000/svg" width="124.461" height="34.813" viewBox="0 0 124.461 34.813"><defs><style>.a{fill:#5cade1;}</style></defs><g transform="translate(0 -19.229)"><g transform="translate(0 19.229)"><path class="a" d="M24.576,22.969a5.558,5.558,0,0,0-2.04-2.2,9.557,9.557,0,0,0-3.245-1.191,26.522,26.522,0,0,0-4.409-.348l-7.8.005a1.954,1.954,0,0,0-1.8,1.425L.04,43.515a1.1,1.1,0,0,0,1.129,1.42H4.9A1.912,1.912,0,0,0,6.7,43.515l1.281-5.549a1.913,1.913,0,0,1,1.79-1.417h1.069c4.567-.005,8.1-.938,10.644-2.807a8.742,8.742,0,0,0,3.814-7.407A6.947,6.947,0,0,0,24.576,22.969Zm-8.055,7.467a7.854,7.854,0,0,1-4.722,1.24h-.914a1.113,1.113,0,0,1-1.134-1.425L10.875,25.4a1.89,1.89,0,0,1,1.779-1.417l1.224-.008a5.976,5.976,0,0,1,3.248.726A2.469,2.469,0,0,1,18.2,26.924,4.043,4.043,0,0,1,16.522,30.436Z" transform="translate(0 -19.229)"/></g><g transform="translate(23.222 25.045)"><path class="a" d="M27.9,22.558q-2.114-1.191-6.675-1.191a29.5,29.5,0,0,0-4.518.351c-1.118.171-1.227.2-1.915.354A2.191,2.191,0,0,0,13.15,23.8l-.457,1.88c-.258,1.2.433,1.153.721,1.053a19.41,19.41,0,0,1,2.233-.658,16.011,16.011,0,0,1,3.5-.468,9.22,9.22,0,0,1,3.4.479,1.716,1.716,0,0,1,1.126,1.7l-.065.528-.539.332c-2.119.133-3.651.329-5.508.6a17.086,17.086,0,0,0-4.736,1.3,7.362,7.362,0,0,0-3.215,2.535,6.909,6.909,0,0,0-1.069,3.906,4.615,4.615,0,0,0,1.521,3.547,5.709,5.709,0,0,0,3.936,1.344,10.738,10.738,0,0,0,2.345-.218l1.809-.623,1.531-.849,1.409-.93.019.027-.141.6-.008.024v.005a1.111,1.111,0,0,0,1,1.4l.014.016h3.468l.049-.022a1.932,1.932,0,0,0,1.608-1.4l2.723-11.786.141-.96.065-.9A3.941,3.941,0,0,0,27.9,22.558ZM21.88,35.811l-.582.767-1.469.759a5.231,5.231,0,0,1-1.953.422,4.482,4.482,0,0,1-2.127-.405l-.721-1.4a2.8,2.8,0,0,1,.547-1.823l1.583-1.077a13.693,13.693,0,0,1,2.462-.555c.854-.106,2.541-.3,2.761-.3l.258.454C22.587,32.906,22.108,34.908,21.88,35.811Z" transform="translate(-8.537 -21.367)"/></g><g transform="translate(91.058 25.058)"><path class="a" d="M52.84,22.566q-2.126-1.191-6.673-1.194a28.437,28.437,0,0,0-4.516.359c-1.121.163-1.232.2-1.923.345a2.184,2.184,0,0,0-1.638,1.73l-.457,1.877c-.256,1.2.419,1.145.734,1.053a22.126,22.126,0,0,1,2.214-.661,16.7,16.7,0,0,1,3.506-.468,9.172,9.172,0,0,1,3.389.481A1.712,1.712,0,0,1,48.6,27.783l-.057.525-.533.34c-2.141.128-3.675.324-5.514.593a17.092,17.092,0,0,0-4.739,1.3,7.356,7.356,0,0,0-3.215,2.541,6.823,6.823,0,0,0-1.072,3.89A4.563,4.563,0,0,0,35,40.527a5.715,5.715,0,0,0,3.928,1.352,10.406,10.406,0,0,0,2.342-.22l1.8-.615,1.545-.849,1.4-.941.024.03-.128.6L45.9,39.9l.005.011a1.093,1.093,0,0,0,.993,1.4l.005.014h3.466l.057-.019a1.912,1.912,0,0,0,1.589-1.409l2.731-11.77.144-.966.079-.9A3.934,3.934,0,0,0,52.84,22.566ZM46.831,35.819l-.607.775-1.455.753a5.29,5.29,0,0,1-1.945.422,4.349,4.349,0,0,1-2.124-.408l-.729-1.4a2.919,2.919,0,0,1,.533-1.828,3.827,3.827,0,0,1,1.6-1.074,13.875,13.875,0,0,1,2.459-.552c.849-.106,2.53-.3,2.747-.307l.264.454C47.536,32.916,47.054,34.91,46.831,35.819Z" transform="translate(-33.475 -21.372)"/></g><g transform="translate(67.824 19.311)"><path class="a" d="M49.512,23a5.779,5.779,0,0,0-2.056-2.209A9.167,9.167,0,0,0,44.21,19.6a25.677,25.677,0,0,0-4.393-.343l-7.81.005a1.94,1.94,0,0,0-1.782,1.42L24.973,43.55A1.107,1.107,0,0,0,26.1,44.967l3.74-.005a1.937,1.937,0,0,0,1.8-1.414L32.9,38a1.937,1.937,0,0,1,1.8-1.417h1.069c4.573,0,8.117-.941,10.669-2.8a8.84,8.84,0,0,0,3.8-7.418A7.286,7.286,0,0,0,49.512,23ZM41.457,30.48A7.952,7.952,0,0,1,36.746,31.7h-.93a1.118,1.118,0,0,1-1.142-1.423L35.8,25.437a1.9,1.9,0,0,1,1.784-1.417l1.21-.008a6.046,6.046,0,0,1,3.248.724,2.49,2.49,0,0,1,1.085,2.225A4.1,4.1,0,0,1,41.457,30.48Z" transform="translate(-24.934 -19.259)"/></g><g transform="translate(113.147 19.514)"><path class="a" d="M52.875,20.738a1.092,1.092,0,0,0-1.121-1.4H48.409a1.9,1.9,0,0,0-1.6,1.134l-.185.288-.169.74L41.774,42.752l-.152.653.005.016a1.059,1.059,0,0,0,.938,1.327l.057.079H46.1a1.9,1.9,0,0,0,1.61-1.153l.18-.272,5-22.662Z" transform="translate(-41.595 -19.334)"/></g><g transform="translate(45.953 25.33)"><path class="a" d="M38.907,21.472c-.884.011-4.477,0-4.477,0a3.237,3.237,0,0,0-2.35,1.425S26.731,32.075,26.212,33l-.62-.008L23.927,22.96A2.057,2.057,0,0,0,21.892,21.5l-3.346.005a1.1,1.1,0,0,0-1.118,1.425s2.541,14.458,3.049,17.861c.237,1.877-.03,2.212-.03,2.212L17.14,48.761c-.49.783-.226,1.423.577,1.423l3.868-.005a3.126,3.126,0,0,0,2.342-1.42L38.806,23.591S40.237,21.442,38.907,21.472Z" transform="translate(-16.893 -21.472)"/></g></g></svg>