<svg xmlns="http://www.w3.org/2000/svg" width="55" height="37.813" viewBox="0 0 55 37.813"><defs><style>.a{fill:#5cade1;}</style></defs><g transform="translate(-227.654 -236.512)"><g transform="translate(242.738 255.607)"><path class="a" d="M243.6,256.22l-.39,1.552h.78Z" transform="translate(-243.209 -256.22)"/></g><g transform="translate(227.654 236.512)"><path class="a" d="M279.217,236.512H231.091a3.443,3.443,0,0,0-3.437,3.437v30.938a3.44,3.44,0,0,0,3.437,3.437h48.125a3.438,3.438,0,0,0,3.437-3.437V239.949A3.441,3.441,0,0,0,279.217,236.512Zm-32.241,27.449a1.689,1.689,0,0,1-.415.051,1.711,1.711,0,0,1-1.664-1.3l-.536-2.134h-2.475l-.533,2.134a1.718,1.718,0,1,1-3.334-.831l3.437-13.75a1.785,1.785,0,0,1,3.334,0l3.437,13.75A1.718,1.718,0,0,1,246.976,263.961Zm9.9-13.7h-1.719v12.032a1.719,1.719,0,0,1-3.437,0V250.262H250a1.719,1.719,0,1,1,0-3.437h6.875a1.719,1.719,0,0,1,0,3.437Zm15.469,12.032a1.719,1.719,0,0,1-3.438,0v-8.076l-.288.434a1.785,1.785,0,0,1-2.86,0l-.289-.434v8.076a1.719,1.719,0,0,1-3.437,0V248.543a1.719,1.719,0,0,1,3.148-.956l2.008,3.015,2.007-3.011a1.693,1.693,0,0,1,1.929-.691,1.718,1.718,0,0,1,1.22,1.642Z" transform="translate(-227.654 -236.512)"/></g></g></svg>