<svg xmlns="http://www.w3.org/2000/svg" width="38.469" height="23.611" viewBox="0 0 38.469 23.611"><defs><style>.a{fill:#ea001b;}.b{fill:#f79f1a;}.c{fill:#ff5f01;}</style></defs><g transform="translate(-327.638 -217.177)"><path class="a" d="M342.5,228.983a11.783,11.783,0,0,1,4.376-9.175,11.805,11.805,0,1,0,0,18.348A11.78,11.78,0,0,1,342.5,228.983Z"/><path class="b" d="M363.413,217.178a11.755,11.755,0,0,0-7.429,2.631,11.8,11.8,0,0,1,0,18.348,11.805,11.805,0,1,0,7.429-20.979Z" transform="translate(-9.112 0)"/><path class="c" d="M358.288,230.23a11.782,11.782,0,0,0-4.377-9.175,11.8,11.8,0,0,0,0,18.348A11.778,11.778,0,0,0,358.288,230.23Z" transform="translate(-7.039 -1.247)"/></g></svg>