<svg xmlns="http://www.w3.org/2000/svg" width="56.692" height="17.188" viewBox="0 0 56.692 17.188"><defs><style>.a{fill:#3c58bf;}.b{fill:#293688;}.c{fill:#ffbc00;}.d{fill:#f7981d;}.e{fill:#ed7c00;}.f{fill:#051244;}</style></defs><g transform="translate(-223.654 -243.406)"><path class="a" d="M244.441,260.144l2.88-16.2h4.5l-2.79,16.2Z"/><path class="b" d="M244.441,260.144l3.69-16.2h3.69l-2.79,16.2Z"/><path class="a" d="M265.318,244.126a11.409,11.409,0,0,0-4.139-.72c-4.5,0-7.739,2.25-7.739,5.489,0,2.43,2.25,3.69,4.049,4.5s2.34,1.35,2.34,2.07c0,1.079-1.44,1.619-2.7,1.619a9.781,9.781,0,0,1-4.319-.9l-.63-.27-.63,3.69a14.592,14.592,0,0,0,5.129.9c4.77,0,7.919-2.25,7.919-5.669,0-1.89-1.169-3.33-3.869-4.5-1.62-.81-2.61-1.26-2.61-2.07,0-.719.81-1.439,2.61-1.439a8.246,8.246,0,0,1,3.419.63l.45.18.72-3.51Z"/><path class="b" d="M265.318,244.126a11.409,11.409,0,0,0-4.139-.72c-4.5,0-6.929,2.25-6.929,5.489,0,2.43,1.44,3.69,3.239,4.5s2.34,1.35,2.34,2.07c0,1.079-1.44,1.619-2.7,1.619a9.781,9.781,0,0,1-4.319-.9l-.63-.27-.63,3.69a14.592,14.592,0,0,0,5.129.9c4.77,0,7.919-2.25,7.919-5.669,0-1.89-1.169-3.33-3.869-4.5-1.62-.81-2.61-1.26-2.61-2.07,0-.719.81-1.439,2.61-1.439a8.246,8.246,0,0,1,3.419.63l.45.18.72-3.51Z"/><path class="a" d="M273.057,243.946c-1.079,0-1.889.09-2.339,1.17l-6.749,15.028h4.859l.9-2.7h5.759l.54,2.7h4.319l-3.779-16.2Zm-2.069,10.8c.27-.81,1.8-4.77,1.8-4.77s.36-.99.63-1.62l.27,1.53s.9,4.05,1.08,4.95h-3.779Z"/><path class="b" d="M274.137,243.946c-1.08,0-1.89.09-2.339,1.17l-7.829,15.028h4.859l.9-2.7h5.759l.54,2.7h4.319l-3.779-16.2Zm-3.149,10.8c.36-.9,1.8-4.77,1.8-4.77s.36-.99.63-1.62l.27,1.53s.9,4.05,1.08,4.95h-3.779Z"/><path class="a" d="M236.162,255.285l-.45-2.34a13.047,13.047,0,0,0-6.3-7.109l4.049,14.4h4.86l7.289-16.2h-4.86Z"/><path class="b" d="M236.162,255.285l-.45-2.34a13.047,13.047,0,0,0-6.3-7.109l4.049,14.4h4.86l7.289-16.2h-3.96Z"/><path class="c" d="M223.654,243.946l.809.18c5.76,1.35,9.719,4.769,11.249,8.819l-1.62-7.649c-.27-1.08-1.08-1.35-2.07-1.35Z"/><path class="d" d="M223.654,243.946h0c5.759,1.35,10.528,4.859,12.058,8.909l-1.53-6.389a2.2,2.2,0,0,0-2.16-1.71Z"/><path class="e" d="M223.654,243.946h0c5.759,1.35,10.528,4.859,12.058,8.909l-1.08-3.51a3.173,3.173,0,0,0-1.89-2.609Z"/><path class="f" d="M240.661,254.745l-3.059-3.06-1.44,3.42-.36-2.25a13.047,13.047,0,0,0-6.3-7.109l4.049,14.4h4.86Z"/><path class="f" d="M249.03,260.144l-3.87-3.96-.72,3.96Z"/><path class="f" d="M259.379,254.565h0c.36.36.54.63.45.99,0,1.079-1.44,1.619-2.7,1.619a9.781,9.781,0,0,1-4.319-.9l-.63-.27-.63,3.69a14.591,14.591,0,0,0,5.129.9c2.88,0,5.22-.81,6.57-2.25Z"/><path class="f" d="M264.6,260.144h4.23l.9-2.7h5.759l.54,2.7h4.319l-1.529-6.569-5.4-5.22.27,1.44s.9,4.05,1.08,4.95h-3.779c.36-.9,1.8-4.77,1.8-4.77s.36-.99.63-1.62"/></g></svg>