<svg xmlns="http://www.w3.org/2000/svg" width="55" height="34.109" viewBox="0 0 55 34.109"><defs><style>.a{fill:#5cade1;}</style></defs><g transform="translate(-199.904 -210.671)"><g transform="translate(199.904 210.671)"><path class="a" d="M208.806,210.671H201.06a1.139,1.139,0,0,0-1.156,1.122v31.864a1.139,1.139,0,0,0,1.156,1.122h7.746a1.14,1.14,0,0,0,1.157-1.122V211.793A1.14,1.14,0,0,0,208.806,210.671Z" transform="translate(-199.904 -210.671)"/><path class="a" d="M242.524,210.671h-7.746a1.14,1.14,0,0,0-1.157,1.122v31.864a1.14,1.14,0,0,0,1.157,1.122h7.746a1.14,1.14,0,0,0,1.157-1.122V211.793A1.14,1.14,0,0,0,242.524,210.671Z" transform="translate(-201.127 -210.671)"/><path class="a" d="M216.444,210.671h-2.716a1.14,1.14,0,0,0-1.157,1.122v31.864a1.14,1.14,0,0,0,1.157,1.122h2.716a1.14,1.14,0,0,0,1.157-1.122V211.793A1.14,1.14,0,0,0,216.444,210.671Z" transform="translate(-200.319 -210.671)"/><path class="a" d="M229.825,210.671h-2.716a1.14,1.14,0,0,0-1.157,1.122v31.864a1.14,1.14,0,0,0,1.157,1.122h2.716a1.14,1.14,0,0,0,1.157-1.122V211.793A1.14,1.14,0,0,0,229.825,210.671Z" transform="translate(-200.757 -210.671)"/><path class="a" d="M255.44,210.671h-2.716a1.14,1.14,0,0,0-1.157,1.122v31.864a1.14,1.14,0,0,0,1.157,1.122h2.716a1.139,1.139,0,0,0,1.156-1.122V211.793A1.14,1.14,0,0,0,255.44,210.671Z" transform="translate(-201.596 -210.671)"/><path class="a" d="M222.126,210.671h-.2a1.139,1.139,0,0,0-1.156,1.122v31.864a1.14,1.14,0,0,0,1.156,1.122h.2a1.139,1.139,0,0,0,1.156-1.122V211.793A1.14,1.14,0,0,0,222.126,210.671Z" transform="translate(-200.556 -210.671)"/><path class="a" d="M248.206,210.671H248a1.139,1.139,0,0,0-1.156,1.122v31.864A1.14,1.14,0,0,0,248,244.78h.2a1.14,1.14,0,0,0,1.156-1.122V211.793A1.14,1.14,0,0,0,248.206,210.671Z" transform="translate(-201.596 -210.671)"/></g></g></svg>