<svg xmlns="http://www.w3.org/2000/svg" width="55" height="41.364" viewBox="0 0 55 41.364"><defs><style>.a{fill:#5cade1;}</style></defs><g transform="translate(-214.269 -221.297)"><g transform="translate(214.269 221.297)"><g transform="translate(15.182 12.342)"><path class="a" d="M265.775,234.912H236.332a5.206,5.206,0,0,0-5.188,5.188v18.647a5.206,5.206,0,0,0,5.188,5.187h29.443a5.2,5.2,0,0,0,5.187-5.187V240.1A5.19,5.19,0,0,0,265.775,234.912Zm2.4,23.9a1.887,1.887,0,0,1-1.881,1.881H236.273a1.887,1.887,0,0,1-1.881-1.881V245.7H268.17Zm0-18.063H234.392v-.713a1.888,1.888,0,0,1,1.881-1.881h30.016a1.887,1.887,0,0,1,1.881,1.881Z" transform="translate(-231.144 -234.912)"/></g><path class="a" d="M235.958,231.381H254.22l-3.716-7.286a5.277,5.277,0,0,0-6.963-2.274l-26.382,12.626a4.961,4.961,0,0,0-2.349,6.742l8.272,16.19A5.259,5.259,0,0,0,229.1,260a7.382,7.382,0,0,1-1.1-3.88V239.1A7.853,7.853,0,0,1,235.958,231.381Z" transform="translate(-214.269 -221.297)"/><g transform="translate(21.241 29.377)"><path class="a" d="M239.708,258.677a3.322,3.322,0,0,0,2.547-1.18,3.365,3.365,0,1,0,0-4.37,3.361,3.361,0,1,0-2.547,5.55Z" transform="translate(-236.343 -251.947)"/></g></g></g></svg>