<svg xmlns="http://www.w3.org/2000/svg" width="304.967" height="386.988" viewBox="0 0 304.967 386.988"><defs><style>.a{fill:#5cade1;}.b,.e{opacity:0.1;}.c{fill:#efb7b9;}.d{fill:#3f3d56;}.f{fill:#4c4981;}.g{fill:#444053;}.h{fill:#f86d70;}.i{fill:#925978;}</style></defs><g transform="translate(386.513 -151.898)"><path class="a" d="M-210.546,154.865v225.1a85.151,85.151,0,0,0-116.306,31.207,85.151,85.151,0,0,0,31.206,116.307,85.151,85.151,0,0,0,116.307-31.207,85.143,85.143,0,0,0,11.393-42.707v-213.4h85.4v-85.3Z"/><path class="b" d="M-95.546,154.865v71.3h-85.4v213.4a85.27,85.27,0,0,1-85.241,85.3,85.27,85.27,0,0,1-52.949-18.409,85.28,85.28,0,0,0,119.785,14.036,85.28,85.28,0,0,0,32.4-66.926v-213.4h85.4v-85.3Z"/><path class="c" d="M-369.085,185.423l.37,2.785,12.07,1.711s.983-.741,2.554-1.75c2.861-1.877,7.663-4.674,11.75-5.466,6.323-1.277,26.426-10.282,19.95-10.869s-5.811.753-5.811.753-7.139-7.011-14.509-.6c-5.594,4.866-17.881,10.1-23.488,12.338C-367.987,185.027-369.085,185.423-369.085,185.423Z"/><path class="d" d="M-320.871,153.417a20.428,20.428,0,0,1,5.786-1.482,7.041,7.041,0,0,1,5.505,1.839c.779.8,1.277,1.839,2.043,2.657,3.679,3.934,10.818,1,15.25,4.049,2.72,1.89,3.563,5.453,4.534,8.633s2.733,6.667,5.977,7.344a17.679,17.679,0,0,0,4.713-.179,4.639,4.639,0,0,1,4.241,1.559c1.507,2.286-.575,6.1,1.609,7.739,1.954,1.444,5.492-.574,6.858,1.431a2.99,2.99,0,0,1-.472,3.321,22.992,22.992,0,0,0-2.223,2.784,4.215,4.215,0,0,0,1.768,5.692,4.212,4.212,0,0,0,2.383.464c1.38-.14,2.849-.919,4.049-.243a2.86,2.86,0,0,1,1.277,2.261,5.94,5.94,0,0,1-5.338,6.246c-2.35.153-4.509-1.124-6.6-2.2s-4.56-1.98-6.731-1.086a10.39,10.39,0,0,0-2.708,1.9,29.626,29.626,0,0,1-8.327,4.93c-2.657,1.048-5.748,1.673-8.3.371-2.874-1.469-4.355-5.045-7.395-6.131s-6.514.945-9.426,2.669-6.807,3.168-9.438,1.048c-2.836-2.287-1.967-6.872-3.692-10.077a9.893,9.893,0,0,0-2.771-3.053c-1.941-1.494-4.151-2.618-6.105-4.087a10.219,10.219,0,0,1-4.164-5.85c-.574-2.9.8-5.8,2.376-8.3s3.4-4.956,3.908-7.855c.383-2.171,0-4.432.5-6.578a8.111,8.111,0,0,1,5.262-5.556c1.431-.485,1.686-.357,2.414-1.622A5.106,5.106,0,0,1-320.871,153.417Z"/><g class="e"><path d="M-272.478,178.718a10.839,10.839,0,0,1,.23,3.832A10.391,10.391,0,0,1-272.478,178.718Z"/><path d="M-267.011,193.342a4.153,4.153,0,0,0-.434,1.4,4.316,4.316,0,0,1,.153-3.576,22.692,22.692,0,0,1,2.222-2.772,4.7,4.7,0,0,0,.639-1.277l.1.115a2.987,2.987,0,0,1-.46,3.308A22.75,22.75,0,0,0-267.011,193.342Z"/><path d="M-334.664,189.919c1.954,1.482,4.15,2.554,6.092,4.1a9.739,9.739,0,0,1,2.771,3.052c1.725,3.206.856,7.791,3.691,10.077,2.631,2.121,6.54.69,9.452-1.047s6.232-3.831,9.413-2.669,4.521,4.662,7.407,6.13c2.555,1.278,5.633.664,8.3-.37a29.772,29.772,0,0,0,8.315-4.93,10.984,10.984,0,0,1,2.707-1.916c2.184-.881,4.649,0,6.744,1.1s4.253,2.35,6.59,2.2a6,6,0,0,0,5.3-5.249,3.826,3.826,0,0,1,.281,1.124,5.927,5.927,0,0,1-5.3,6.284c-2.337.153-4.508-1.124-6.59-2.184s-4.56-1.98-6.744-1.1a11.286,11.286,0,0,0-2.707,1.9,29.8,29.8,0,0,1-8.315,4.943c-2.656,1.035-5.76,1.661-8.3.371-2.886-1.469-4.355-5.045-7.407-6.131s-6.514.932-9.413,2.669-6.821,3.168-9.452,1.035c-2.835-2.286-1.967-6.859-3.691-10.077a9.826,9.826,0,0,0-2.771-3.04c-1.929-1.494-4.138-2.618-6.093-4.1a10.222,10.222,0,0,1-4.176-5.849,6.98,6.98,0,0,1-.128-1.533A10.68,10.68,0,0,0-334.664,189.919Z"/></g><path class="f" d="M-329.492,256.257l-4.381.932s4.317,7.1,10.972,2.44S-329.492,256.257-329.492,256.257Z"/><path class="b" d="M-329.492,256.257l-4.381.932s4.317,7.1,10.972,2.44S-329.492,256.257-329.492,256.257Z"/><path class="c" d="M-234.4,322.352s6.079,3.142,11.737,6.782c4.062,2.554,7.906,5.453,9.158,7.586,3.014,5.109,17.663,10.652,17.663,10.652l14.535,11.061c3.423,1.137,6.756,5.3,8.123,7.165.409.562.651.92.651.92l5.824-.754,3.066-3.985s.779-8.787-5.275-8.685a8.33,8.33,0,0,1-3.41-.881c-6.514-2.874-15.62-11.942-15.62-11.942s-15.48-19.337-20.116-19.975a7.677,7.677,0,0,1-1.456-.371c-4.713-1.647-11.495-7.727-11.495-7.727Z"/><path class="c" d="M-294.445,378.255c1.545,9.285,8.582,27.038,10.843,30.742,2.81,4.585,4.279,13.768,4.279,13.768l.83,6.386a7.4,7.4,0,0,0,.919,2.478,13.628,13.628,0,0,0,.818,1.277l11.661-3.588s-.677-2.683-1.7-5.761-2.554-6.948-4.01-8.378c-2.849-2.8-3.27-12.67-3.27-12.67s-2.376-18.979-3.1-21.368a32.954,32.954,0,0,1-1.277-7c-.115-1.277-.191-2.733-.2-4.38a89.582,89.582,0,0,0-1.839-14.05l-13.6,2.465-.357,15.212A10.127,10.127,0,0,0-294.445,378.255Z"/><path class="b" d="M-173.188,365.6c.409.562.651.92.651.92l5.824-.754,3.066-3.985s.779-8.787-5.275-8.685a8.33,8.33,0,0,1-3.41-.881c-.5,2.631,2.452,4.815,2.452,4.815s1.277.894.932,5.019C-169.139,364.857-171.63,365.457-173.188,365.6Z"/><path class="g" d="M-173.827,366.134c.384,1.418,4.062,3.5,6.616,4.8,1.277.638,2.235,1.085,2.427,1.187.587.294,3.678-3.141,4.1-5.913s7.791-11.393,7.791-11.393a30.894,30.894,0,0,0,2.733-10.792c.281-3.768-1.277-4.074-3.129-3.219a12.386,12.386,0,0,0-3.5,2.746,9.346,9.346,0,0,1-4.534,2.35,22.189,22.189,0,0,0-6.526,2.785c-1.788,1.149-3.525,2.554-3.832,3.831-.677,2.721,2.414,5.02,2.414,5.02s1.277.894.932,5.019S-173.865,366.007-173.827,366.134Z"/><path class="b" d="M-167.211,370.937c1.277.638,2.235,1.085,2.427,1.187.587.294,3.678-3.141,4.1-5.913s7.791-11.393,7.791-11.393a30.894,30.894,0,0,0,2.733-10.792c.281-3.768-1.277-4.074-3.129-3.219-.307,2.989-1.06,8.8-2.555,11.827C-157.708,356.236-165.18,367.808-167.211,370.937Z"/><path class="b" d="M-277.459,431.4l-.115.217a13.643,13.643,0,0,0,.818,1.278L-265.1,429.3s-.677-2.682-1.7-5.76c-4.611-1.278-11.227,6.781-11.227,6.781Z"/><path class="g" d="M-278.238,440.084s9.732,3.41,14.049,2.887c3.334-.4,3.474-1.942,3.245-5.109-.077-1.022-.179-2.2-.243-3.551-.217-5.619-2.478-6.756-2.478-6.756-3.7-9.707-14.368,3.321-14.368,3.321l.549,1.073a11.757,11.757,0,0,0-1.086,5.3A15.453,15.453,0,0,0-278.238,440.084Z"/><path class="b" d="M-278.238,440.084s9.732,3.41,14.049,2.887c3.334-.4,3.474-1.942,3.245-5.109a10.307,10.307,0,0,1-7.932,2.273,31.187,31.187,0,0,1-9.694-2.886A15.453,15.453,0,0,0-278.238,440.084Z"/><path class="c" d="M-326.478,204.032l3.832,16.6.779,3.423,7.037.894,7.255.919,7.893-2.861s2.2-7.51.383-13.142a8.323,8.323,0,0,0-3.653-4.815,8.165,8.165,0,0,1-1.52-1.175,6.679,6.679,0,0,1-1.277-1.827,7.546,7.546,0,0,1-.677-2.643c-.4-4.483,2.44-9.388,2.44-9.388s-16.732-5.709-15.429-2.018c.856,2.389-1.507,6.552-3.269,9.183-.958,1.418-1.737,2.4-1.737,2.4Z"/><circle class="b" cx="14.535" cy="14.535" r="14.535" transform="translate(-325.916 168.564)"/><circle class="c" cx="14.535" cy="14.535" r="14.535" transform="translate(-325.98 168.028)"/><path class="h" d="M-325.43,259.284c.689,3.206,3.831,8.25,3.831,8.25l20.3,4.982,14.5-15.174v-.1c-.447-1.417-5.977-19.311-1.979-23.717,4.189-4.586,2.554-17.524,2.554-17.524s-7.242-8.327-8.711-10.345-10.869-3.6-10.869-3.6c.473.639.907,1.278,1.278,1.827a17.864,17.864,0,0,1,2.311,4.9,7.327,7.327,0,0,1-.191,5.326,5.831,5.831,0,0,0-.5,1.367c-1.584,6.935-8.813,5.964-11.687,5.275-.74-.179-1.2-.333-1.2-.333l-6.91.218-4.342.14s1.979,34.2,1.507,36.924A4.359,4.359,0,0,0-325.43,259.284Z"/><path class="i" d="M-326.937,222.539l12.58-1.648h-.23c-.741-.179-1.188-.332-1.188-.332l-6.922.217-4.33.141S-327,221.479-326.937,222.539Z"/><path class="i" d="M-312.824,269.719l5.454,1.328,8.6-1.124,2.235-2.337Z"/><path class="i" d="M-303.743,271.941l2.465.6,1.009-1.06Z"/><path class="b" d="M-325.43,259.284c3.244.332,6.232.5,6.232.5l16.719-.626V241.7a24.775,24.775,0,0,0-6.744-4.445c-2.912-1.009-6.386-4.1-5.7-12.248a11.647,11.647,0,0,1,.141-1.456,18.815,18.815,0,0,0,.153-2.746,14.689,14.689,0,0,0-4.636-10.754,2.168,2.168,0,0,0-.243-.217l-2.721-12.67a2.679,2.679,0,0,0-.549.076c-.958,1.418-1.737,2.4-1.737,2.4l-2.005,4.394,3.832,16.6-4.343.14s1.98,34.2,1.507,36.924A4.354,4.354,0,0,0-325.43,259.284Z"/><path class="g" d="M-319.747,259.9l16.719-.613V241.812a24.91,24.91,0,0,0-6.731-4.445c-3.078-1.073-6.744-4.445-5.556-13.7a15.16,15.16,0,0,0-4.445-13.577l-.255-.217-2.72-12.67a5.891,5.891,0,0,0-4.305,2.465,10.719,10.719,0,0,1-1.009,1.482,2.555,2.555,0,0,1-3.359,1c-1.762-.779-9.349-3.985-11.047-.843s-2.018,21.853-2.018,21.853a14.3,14.3,0,0,1,4.917,8.084c1.162,5.352,3.1,5.48,3.1,5.48l2.1,15.326s1.9,3.333.485,5.173"/><path class="g" d="M-328.049,201.146l2.849,8.531,5.44.473-.255-.217-2.72-12.67a5.888,5.888,0,0,0-4.305,2.465A10.749,10.749,0,0,1-328.049,201.146Z"/><path class="b" d="M-369.085,185.423l.37,2.785,12.07,1.711s.983-.741,2.554-1.75c-1.277-.294-7.28-1.6-10.422-2.554-1.162-.358-1.928-.664-1.954-.869s.077-.242.268-.4C-367.987,185.027-369.085,185.423-369.085,185.423Z"/><path class="g" d="M-383.236,203.445s13.678,10.383,22.159,12.056c0,0,11.929,3.525,16.6,7.664l5.108-19.695-3.129-2.158s-3.742,2.311-6.96,1.545-6.782-1.277-6.782-1.277a52.41,52.41,0,0,0-8.673-2.376c-2.3-.191-1.366-3.18.933-4.764a5,5,0,0,1,.958-.536,2.962,2.962,0,0,0,3.831.868,8.752,8.752,0,0,0,2.248-2.094h0a29.249,29.249,0,0,0,2.555-3.832s-7.14-1.533-10.691-2.631c-1.162-.358-1.928-.664-1.954-.868-.1-.818,6.386-3.4,6.386-3.4s-5.543-2.682-7.791-.728c0,0,1.456,1.086.281,2.159s-15.326,11.967-15.326,11.967S-390.465,198.783-383.236,203.445Z"/><path class="b" d="M-371.473,193.367l7.573,1.086a5.027,5.027,0,0,1,.958-.536,2.963,2.963,0,0,0,3.832.868,8.753,8.753,0,0,0,2.248-2.094h0a30.023,30.023,0,0,0,2.069-3.232s-7.14-1.532-10.69-2.631Z"/><path class="g" d="M-371.039,192.754l8.059,1.163a2.963,2.963,0,0,0,3.832.868c2.311-1.277,4.8-5.952,4.8-5.952s-7.14-1.532-10.69-2.631Z"/><path class="b" d="M-220.981,312.262-234.4,322.416s6.079,3.142,11.737,6.782c4.943-3.347,9.605-6.386,13.143-9.209C-214.237,318.278-220.981,312.262-220.981,312.262Z"/><path class="b" d="M-294.445,378.255a45.491,45.491,0,0,0,9.834-2.35s2.478-.536,6.156-1.763c-.115-1.277-.191-2.733-.2-4.38a89.582,89.582,0,0,0-1.839-14.05l-13.6,2.465-.357,15.212A10.127,10.127,0,0,0-294.445,378.255Z"/><path class="g" d="M-318.687,316.541c2.733,4.048,10.218,21.265,10.218,21.265a73.232,73.232,0,0,0,5.7,8.774c2.976,3.743,5.032,12.159,7.293,18.89s-.664,5.467-.345,8.941,13.1-1.022,13.1-1.022,26.119-5.748,34.1-21.713,39.861-30.422,46.311-39.4-1.827-5.275-1.507-10.141-3.359-8.941-3.359-8.941-12.032-3.4-13.986-5.76-11.558-8.276-11.558-8.276-9.056-3.921-10.218-5.288-11.891-5.607-15.173-6.386-6.5-5.492-6.5-5.492-2.031.269-5.032-2.643-15.6-5.416-15.6-5.416c-21.495,15.838-36.349,13.628-36.349,13.628l-.345,2.989C-333.362,285.441-321.42,312.492-318.687,316.541Z"/><path class="b" d="M-321.931,270.523s18.583,6.118,36.707-16.514c-21.508,15.761-36.362,13.551-36.362,13.551Z"/><path class="b" d="M-289.95,281.086s24.957,36.029,26.5,37.345S-288.634,280.639-289.95,281.086Z"/><path class="b" d="M-301.483,278.327s17.281,26.821,16.936,30.448C-284.547,308.775-301.227,282.989-301.483,278.327Z"/><path class="b" d="M-311.547,285.7s3.193,15.007-1.609,23.514Z"/><path class="b" d="M-318.189,286.565s-.2,12.989-1.66,15.658Z"/><path class="b" d="M-275.862,274.981l22.951,8.991-8.4,1.1Z"/><path class="b" d="M-321.05,174.5c1.15.766,2.108,1.98,3.474,2.159a5.47,5.47,0,0,0,2.823-.69c2.286-1,4.866-1.763,7.242-.983,3.372,1.111,5.224,4.993,8.583,6.143a6.121,6.121,0,0,0,3.218.179,6.243,6.243,0,0,0,1.814-.741,5.84,5.84,0,0,0,2.554-3.627,7.512,7.512,0,0,0-2.554-7.076,15.674,15.674,0,0,0-7.14-3.244c-6.743-1.494-13.755-1-20.639-.473a3,3,0,0,0-1.61.422c-1.047.779-2.835,4.7-2.465,6.028C-325.239,174.324-321.241,173.047-321.05,174.5Z"/><path class="d" d="M-321.113,173.967c1.149.753,2.094,1.979,3.474,2.158a5.4,5.4,0,0,0,2.809-.7c2.287-1,4.879-1.763,7.242-.984,3.372,1.124,5.224,5.007,8.583,6.144a6,6,0,0,0,3.218.178,5.843,5.843,0,0,0,1.814-.728,5.974,5.974,0,0,0,2.631-3.627,7.546,7.546,0,0,0-2.618-7.088,15.725,15.725,0,0,0-7.14-3.232c-6.743-1.507-13.742-1-20.639-.485a3.041,3.041,0,0,0-1.61.434c-1.034.767-2.835,4.7-2.465,6.029C-325.3,173.839-321.3,172.485-321.113,173.967Z"/><path class="c" d="M-232.259,184.657l2.2,8.876,2.848-1.724,15.48-9.336s11.725-.434,12.632-9.86-13.028-.09-13.769.626-2.426,1.979-2.426,1.979l-14.407,8.047Z"/><path class="b" d="M-232.259,184.657l2.2,8.876,2.848-1.724c-.625-4.01-1.609-7.663-2.554-8.557Z"/><path class="b" d="M-308.661,242.693l3.155,18.519,18.673-3.87c-.447-1.417-5.978-19.311-1.98-23.717,4.189-4.585,2.554-17.523,2.554-17.523s-7.241-8.328-8.71-10.346-10.869-3.6-10.869-3.6a7.558,7.558,0,0,1-.677-2.644,10.606,10.606,0,0,0-.715,1.979c0,3.372,1.366,5.7,4.981,7.395.319.154.651.294,1.009.435.562.23,1.188.447,1.852.651l.306.089c6.016,1.788,7.319,5.39,7.319,5.39a13.784,13.784,0,0,1,2.733,9.707C-289.618,230.84-308.661,242.693-308.661,242.693Z"/><path class="g" d="M-307.613,242.552l3.154,18.507,21.112-4.394s-.638-6.986-2.107-9.821-1.175-13.909-1.175-13.909c8.94-9.63,4.24-17.459,4.24-17.459s26.272-4.266,26.719-5.109,9.209-5.518,9.209-5.518,9.515-2.439,10.8-3.831A11.568,11.568,0,0,1-234.1,199.6a4.176,4.176,0,0,1,.511-.332l.7,6.067h.319a8.647,8.647,0,0,0,4.138-1.635c2.171-1.66-.575-19.86-2.682-20.5a2.42,2.42,0,0,0-1.213,0,13.707,13.707,0,0,0-4.534,2.452l-.371.294-.128.115s-11.89,4.662-14.266,6.807-20.869,4.866-20.869,4.866-8.289,1.967-9.362.78-13.73-3.13-14.79-1.278-4,1.52-4,1.52c-2.082-2.4-3.525-1.469-4.406-.089a9.636,9.636,0,0,0-1.124,2.669c0,3.678,1.622,6.092,5.99,7.829.664.256,1.379.511,2.158.741,6.029,1.788,7.319,5.39,7.319,5.39A13.758,13.758,0,0,1-287.957,225C-288.532,230.7-307.613,242.552-307.613,242.552Z"/><path class="b" d="M-232.259,183.265a1.982,1.982,0,0,1,.677.076c2.108.639,4.841,18.852,2.67,20.512a8.566,8.566,0,0,1-3.691,1.6h-.32l-.7-6.067a4.177,4.177,0,0,0-.511.332v-.255a15.766,15.766,0,0,0-3-13.475Z"/><path class="g" d="M-233.638,199.358l.7,6.066a8.482,8.482,0,0,0,4.508-1.724c2.171-1.66-.575-19.86-2.682-20.5-1.66-.511-4.585,1.558-5.747,2.439A15.789,15.789,0,0,1-233.638,199.358Z"/><path class="g" d="M-300.129,209.128l3.027-2.835-7.893-7.664a9.654,9.654,0,0,0-1.124,2.67C-306.094,204.977-304.5,207.391-300.129,209.128Z"/><path class="b" d="M-321.254,172.881c1.15.754,2.1,1.98,3.474,2.159a5.4,5.4,0,0,0,2.81-.7c2.286-1,4.879-1.762,7.242-.983,3.371,1.124,5.223,5.006,8.582,6.143a6,6,0,0,0,3.219.179,5.838,5.838,0,0,0,4.445-4.355,5.823,5.823,0,0,0,.14-1.622,6.034,6.034,0,0,1,0,2.707,5.923,5.923,0,0,1-2.631,3.627,5.723,5.723,0,0,1-1.813.728,5.946,5.946,0,0,1-3.206-.178c-3.372-1.137-5.224-5.02-8.6-6.144-2.363-.779-4.955,0-7.242.984a5.4,5.4,0,0,1-2.809.7c-1.367-.179-2.325-1.4-3.474-2.158-.192-1.482-4.19-.128-4.688-1.9a2.124,2.124,0,0,1,0-.818C-325.009,172.613-321.445,171.489-321.254,172.881Z"/><path class="b" d="M-308.891,214.684s-1.673,4.7.46,6.284c0,0-2.337-6.22-3.691-6.08"/><path class="c" d="M-204.863,168.909s-10.792,9.336-2.988,10.843S-204.863,168.909-204.863,168.909Z"/></g></svg>