<svg xmlns="http://www.w3.org/2000/svg" width="170" height="225" viewBox="0 0 170 225"><defs><style>.a,.b{fill:#5cade1;}.b{stroke:#5cade1;font-size:25px;font-family:TaipeiSansTCBeta-Bold, Taipei Sans TC Beta;font-weight:700;letter-spacing:0.05em;}</style></defs><g transform="translate(-1496 -329)"><g transform="translate(-462.998 -454.216)"><path class="a" d="M2121.463,868.225c-.171,32.091-20.44,61.788-50.787,72.808a78.434,78.434,0,0,1-86.58-23.44c-20.839-24.991-23.357-61.676-6.576-89.449,16.727-27.683,50.027-42.448,81.782-35.938a77.266,77.266,0,0,1,62.161,76.019c.026,4.846,7.561,4.856,7.535,0a86.03,86.03,0,0,0-55.926-79.929c-33.366-12.327-72.344-1.654-94.827,25.866-22.535,27.583-25.72,67.346-7.231,97.946a85.99,85.99,0,0,0,89.873,39.483c34.295-6.828,61.872-35.594,67.072-70.2a91.883,91.883,0,0,0,1.039-13.17C2129.024,863.376,2121.489,863.37,2121.463,868.225Z"/><path class="a" d="M2043.965,841.942a3.173,3.173,0,1,0,2.645,3.129A2.918,2.918,0,0,0,2043.965,841.942Z"/><path class="a" d="M2058.933,828.578a16.744,16.744,0,1,0-30.03,0,3.206,3.206,0,0,0,.54,6.366h2.83l3.168,40.228a4.329,4.329,0,0,0,3.251,3.651c.645,2.426,2.139,4.46,5.332,4.46s4.677-2.021,5.326-4.437a4.332,4.332,0,0,0,3.337-3.641l3.084-40.227,2.616.01a3.245,3.245,0,0,0,3.208-3.251A3.206,3.206,0,0,0,2058.933,828.578Zm-14.968,9.921c3.07,0,5.558,2.942,5.558,6.572s-2.488,6.571-5.558,6.571-5.559-2.942-5.559-6.571S2040.9,838.5,2043.965,838.5Z"/><path class="a" d="M2015.772,914.557c-6.032,0-10.353-3.741-10.353-9.464,0-5.614,3.954-9.723,10.924-9.723,7.133,0,11.616,4.733,11.616,14.051,0,10.273-3.872,15.593-11.82,15.593-5.421,0-8.192-2.2-9.456-4.659a1.156,1.156,0,0,1-.2-.7,1.719,1.719,0,0,1,1.182-1.467,2.6,2.6,0,0,1,1.06-.22,1.688,1.688,0,0,1,1.508.807c.978,1.724,2.446,3.228,6.114,3.228,6.277,0,8.029-6.017,8.029-12.033C2022.7,912.833,2019.889,914.557,2015.772,914.557Zm-6.562-9.538c0,4.072,2.894,6.6,7.051,6.6,4.239,0,7.3-2.788,7.3-6.493,0-3.889-2.894-6.787-7.174-6.787C2011.982,898.342,2009.21,901.093,2009.21,905.019Z"/><path class="a" d="M2016.139,926.059c-6.305,0-9.108-2.792-10.352-5.162a2.192,2.192,0,0,1-.353-1.24,2.728,2.728,0,0,1,1.819-2.429,3.628,3.628,0,0,1,1.468-.3,2.716,2.716,0,0,1,2.407,1.319c.75,1.323,1.825,2.717,5.215,2.717,4.6,0,6.3-3.794,6.806-7.871a10.927,10.927,0,0,1-7.377,2.512c-6.71,0-11.4-4.322-11.4-10.509,0-6.541,4.7-10.768,11.969-10.768,8.046,0,12.66,5.5,12.66,15.1C2029,917.011,2026.772,926.059,2016.139,926.059Zm-7.418-7.044a1.54,1.54,0,0,0-.631.128c-.4.168-.566.4-.566.514a.331.331,0,0,0,.009.094l.079.126c1.377,2.677,4.325,4.092,8.527,4.092,7.25,0,10.775-4.758,10.775-14.548,0-8.387-3.754-13.006-10.571-13.006-6.094,0-9.879,3.325-9.879,8.678,0,5.036,3.741,8.42,9.308,8.42,3.531,0,6.121-1.369,7.7-4.069l1.947-3.333v3.861c0,8.433-3.223,13.078-9.074,13.078-4.335,0-6.031-2.008-7.023-3.758A.649.649,0,0,0,2008.721,919.015Zm7.54-6.348c-4.843,0-8.1-3.074-8.1-7.648,0-4.619,3.3-7.722,8.218-7.722,4.762,0,8.219,3.293,8.219,7.832C2024.6,909.426,2021.016,912.667,2016.261,912.667Zm.122-13.28c-3.723,0-6.128,2.21-6.128,5.632s2.3,5.559,6.006,5.559c3.622,0,6.251-2.292,6.251-5.449C2022.512,901.747,2019.992,899.387,2016.383,899.387Z"/><path class="a" d="M2058.123,910.155c0,9.722-4.117,14.859-11.616,14.859-7.7,0-11.657-5.1-11.657-14.932,0-9.576,4.117-14.712,11.7-14.712C2053.965,895.37,2058.123,900.25,2058.123,910.155Zm-19.36-.036c0,7.741,2.567,11.739,7.744,11.739s7.7-4,7.7-11.739c0-7.6-2.486-11.594-7.663-11.594C2041.412,898.525,2038.763,902.414,2038.763,910.119Z"/><path class="a" d="M2046.507,926.059c-5.794,0-12.7-2.772-12.7-15.977,0-10.161,4.526-15.757,12.742-15.757,8.139,0,12.62,5.622,12.62,15.83C2059.167,920.41,2054.671,926.059,2046.507,926.059Zm.04-29.644c-8.8,0-10.652,7.432-10.652,13.667,0,9.215,3.57,13.887,10.612,13.887,8.737,0,10.571-7.512,10.571-13.814C2057.078,901.038,2053.535,896.415,2046.547,896.415Zm-.04,26.488c-4.01,0-8.789-2.218-8.789-12.784,0-10.446,4.8-12.638,8.829-12.638,3.973,0,8.708,2.192,8.708,12.638C2055.255,915.951,2053.738,922.9,2046.507,922.9Zm.04-23.333c-4.535,0-6.74,3.451-6.74,10.549,0,10.7,5.043,10.7,6.7,10.7s6.658,0,6.658-10.7C2053.165,899.57,2048.184,899.57,2046.547,899.57Z"/><path class="a" d="M2082.412,922.971c0,1.363-.734,1.939-2.2,1.939h-12.454c-1.469,0-2.2-.576-2.2-1.939V909.248c0-1.386.734-1.961,2.2-1.961h12.454c1.468,0,2.2.575,2.2,1.961Zm-1.893-7.97v-5.455c0-.49-.285-.64-.806-.64h-11.46c-.521,0-.806.15-.806.64V915Zm-13.072,7.65c0,.49.285.639.806.639h11.46c.521,0,.806-.149.806-.639V916.6h-13.072Z"/><path class="a" d="M2080.21,925.955h-12.455c-2.825,0-3.247-1.87-3.247-2.984V909.248c0-1.122.422-3.006,3.247-3.006h12.455c2.825,0,3.247,1.884,3.247,3.006v13.723C2083.457,924.085,2083.035,925.955,2080.21,925.955Zm-12.763-3.3,1.045.006v-.006Zm1.045-.405h10.982v-4.6h-10.982Zm0-8.29h10.982v-4.005h-10.982Z"/></g><text class="b" transform="translate(1581 550)"><tspan x="-59.548" y="0">NT.888</tspan><tspan y="0">元</tspan></text></g></svg>