<svg xmlns="http://www.w3.org/2000/svg" width="170" height="225" viewBox="0 0 170 225"><defs><style>.a,.b{fill:#5cade1;}.b{stroke:#5cade1;font-size:25px;font-family:TaipeiSansTCBeta-Bold, Taipei Sans TC Beta;font-weight:700;letter-spacing:0.05em;}</style></defs><g transform="translate(-254 -329)"><g transform="translate(-716.983 -454.216)"><path class="a" d="M1133.448,868.225c-.171,32.091-20.44,61.788-50.787,72.808a78.434,78.434,0,0,1-86.58-23.44c-20.839-24.991-23.357-61.676-6.576-89.449,16.727-27.683,50.027-42.448,81.782-35.938a77.267,77.267,0,0,1,62.161,76.019c.026,4.846,7.561,4.856,7.535,0a86.03,86.03,0,0,0-55.926-79.929c-33.366-12.327-72.344-1.654-94.827,25.866C967.7,841.745,964.51,881.508,983,912.108a85.99,85.99,0,0,0,89.873,39.483c34.3-6.828,61.873-35.594,67.072-70.2a91.9,91.9,0,0,0,1.039-13.17C1141.009,863.376,1133.474,863.37,1133.448,868.225Z"/><path class="a" d="M1055.95,841.942a3.172,3.172,0,1,0,2.646,3.129A2.918,2.918,0,0,0,1055.95,841.942Z"/><path class="a" d="M1070.918,828.578a16.744,16.744,0,1,0-30.03,0,3.206,3.206,0,0,0,.54,6.366h2.831l3.167,40.228a4.329,4.329,0,0,0,3.251,3.651c.645,2.426,2.139,4.46,5.332,4.46s4.677-2.021,5.326-4.437a4.33,4.33,0,0,0,3.337-3.641l3.084-40.227,2.616.01a3.246,3.246,0,0,0,3.209-3.251A3.206,3.206,0,0,0,1070.918,828.578ZM1055.95,838.5c3.07,0,5.558,2.942,5.558,6.572s-2.488,6.571-5.558,6.571-5.559-2.942-5.559-6.571S1052.88,838.5,1055.95,838.5Z"/><path class="a" d="M1035.009,911.286a1.629,1.629,0,0,1,0-3.253l2.193.072h.326c4.1,0,6.661-1.937,6.661-5.118,0-2.925-2.437-4.643-6.337-4.643-3.615,0-5.483,1.353-6.458,3.693a1.6,1.6,0,0,1-1.544.913,3.825,3.825,0,0,1-.934-.146c-.771-.219-1.3-.694-1.3-1.352a1.316,1.316,0,0,1,.162-.659c1.218-2.741,3.94-5.411,10.236-5.411,5.97,0,9.991,2.888,9.991,7.349,0,3.619-1.99,5.959-6.011,6.837,4.712.585,6.987,3.108,6.987,7.312,0,4.826-4.225,8.153-11.292,8.153-6.134,0-9.545-2.34-11.008-5.667a1.322,1.322,0,0,1-.162-.658c0-.7.569-1.243,1.462-1.462a3.353,3.353,0,0,1,.812-.11,1.749,1.749,0,0,1,1.666,1.06c1.056,2.377,3.127,3.8,7.311,3.8,4.265,0,7.311-2.048,7.311-5.411,0-3.473-2.762-5.338-7.595-5.338h-.244Z"/><path class="a" d="M1037.689,926.074c-7.566,0-10.671-3.389-11.943-6.25a2.378,2.378,0,0,1-.267-1.116,2.661,2.661,0,0,1,2.255-2.473,4.357,4.357,0,0,1,1.06-.14,2.8,2.8,0,0,1,2.6,1.636c.679,1.525,2,3.227,6.38,3.227,3.808,0,6.27-1.716,6.27-4.37,0-3.551-3.564-4.3-6.554-4.3h-.244l-2.209.037a2.453,2.453,0,0,1-1.805-.67,2.8,2.8,0,0,1-.805-2.017,2.745,2.745,0,0,1,.8-1.977,2.447,2.447,0,0,1,1.824-.672l2.19.073h.291c3.52,0,5.62-1.524,5.62-4.077,0-3.251-3.7-3.6-5.295-3.6-2.962,0-4.606.913-5.5,3.052a2.645,2.645,0,0,1-2.505,1.554,4.835,4.835,0,0,1-1.194-.178,2.54,2.54,0,0,1-2.081-2.361,2.349,2.349,0,0,1,.268-1.118c1.785-3.976,5.543-5.993,11.172-5.993,6.6,0,11.032,3.372,11.032,8.39a7.2,7.2,0,0,1-3.616,6.655c3.018,1.294,4.592,3.838,4.592,7.494C1050.023,922.465,1045.181,926.074,1037.689,926.074Zm-8.9-7.9a2.337,2.337,0,0,0-.553.077c-.4.1-.68.288-.68.454a.274.274,0,0,0,.031.153l.043.086c1.451,3.3,4.928,5.045,10.054,5.045,6.323,0,10.251-2.725,10.251-7.112,0-3.769-1.93-5.764-6.073-6.279l-6.047-.75,5.953-1.3c3.494-.763,5.192-2.666,5.192-5.82,0-3.832-3.513-6.308-8.95-6.308-4.747,0-7.872,1.613-9.285,4.793l-.041.081a.288.288,0,0,0-.031.155c0,.111.233.263.542.35a2.83,2.83,0,0,0,.65.107c.411,0,.527-.165.609-.333,1.189-2.856,3.616-4.274,7.393-4.274,4.55,0,7.378,2.178,7.378,5.685,0,3.742-3.024,6.159-7.7,6.159h-.325l-2.228-.073a.4.4,0,0,0-.306.09.683.683,0,0,0-.162.478.742.742,0,0,0,.168.518.345.345,0,0,0,.3.087h.02l2.5-.036c5.488,0,8.636,2.325,8.636,6.379,0,3.86-3.357,6.452-8.352,6.452-4.3,0-6.923-1.4-8.263-4.421A.694.694,0,0,0,1028.794,918.177Z"/><path class="a" d="M1072.018,923.583c0,.573-.471.849-1.085.849-.637,0-1.062-.276-1.062-.849v-6.8c0-1.8-.826-2.8-2.6-2.8a3.933,3.933,0,0,0-3.138,1.487,3.172,3.172,0,0,0-.849,2.165v5.947c0,.573-.4.849-1.015.849-.661,0-1.109-.276-1.109-.849v-15.12c0-.552.448-.828,1.109-.828.613,0,1.015.255,1.015.828v5.33a9.665,9.665,0,0,1-.142,1.083,4.646,4.646,0,0,1,4.554-2.633c2.808,0,4.318,1.529,4.318,4.141Z"/><path class="a" d="M1070.933,925.473a1.894,1.894,0,0,1-2.1-1.89v-6.8c0-1.467-.594-1.762-1.554-1.762a2.891,2.891,0,0,0-2.338,1.112,2.152,2.152,0,0,0-.608,1.5v5.947a1.873,1.873,0,0,1-2.056,1.89,1.918,1.918,0,0,1-2.15-1.89v-15.12a1.909,1.909,0,0,1,2.15-1.869,1.86,1.86,0,0,1,2.056,1.869v3.6a6.341,6.341,0,0,1,3.371-.857c3.356,0,5.359,1.937,5.359,5.182v7.2A1.93,1.93,0,0,1,1070.933,925.473Zm.044-1.89Zm-.065-.192c.022,0,.045,0,.065,0v-7.005a2.79,2.79,0,0,0-1.255-2.66,3.827,3.827,0,0,1,1.19,3.063Zm-8.707,0,.041,0v-4.5l-.041.08Zm0-14.711v5.483a3.269,3.269,0,0,0,.041-.368v-5.117Z"/><path class="a" d="M1077.423,913.241c0-.552.449-.828,1.109-.828.591,0,1.063.276,1.063.828v.467a8.337,8.337,0,0,1-.142,1,3.916,3.916,0,0,1,3.61-2.4,4.493,4.493,0,0,1,.519-.021,4.636,4.636,0,0,1,.945.1c.542.064.755.362.755.765a2.1,2.1,0,0,1-.048.361.964.964,0,0,1-.92.828.724.724,0,0,1-.212-.021,5.248,5.248,0,0,0-1.133-.128,3.16,3.16,0,0,0-2.383,1.168,3.6,3.6,0,0,0-.991,2.358v5.861c0,.573-.472.849-1.063.849-.66,0-1.109-.276-1.109-.849Z"/><path class="a" d="M1078.532,925.473a1.918,1.918,0,0,1-2.15-1.89V913.241a1.909,1.909,0,0,1,2.15-1.869,2.137,2.137,0,0,1,1.739.76,5.2,5.2,0,0,1,2.719-.865,5.46,5.46,0,0,1,1.7.095,1.763,1.763,0,0,1,1.633,1.794,3.005,3.005,0,0,1-.065.552,2,2,0,0,1-1.945,1.678,1.756,1.756,0,0,1-.445-.047,4.206,4.206,0,0,0-.9-.1,2.117,2.117,0,0,0-1.6.809,2.577,2.577,0,0,0-.737,1.7v5.833A1.918,1.918,0,0,1,1078.532,925.473Zm-.068-2.084c.027,0,.061,0,.089,0v-3.258l-.089.24Zm0-9.933v.841l.024-.13a3.32,3.32,0,0,0,.065-.459v-.254Zm5.88-.143.055.013A.536.536,0,0,0,1084.344,913.313Z"/></g><text class="b" transform="translate(338.5 550)"><tspan x="-51.563" y="0">NT.95</tspan><tspan y="0">元</tspan></text></g></svg>