<svg xmlns="http://www.w3.org/2000/svg" width="170" height="225" viewBox="0 0 170 225"><defs><style>.a,.b{fill:#5cade1;}.b{stroke:#5cade1;font-size:25px;font-family:TaipeiSansTCBeta-Bold, Taipei Sans TC Beta;font-weight:700;letter-spacing:0.05em;}</style></defs><g transform="translate(-668 -329)"><g transform="translate(-626.459 -454.216)"><path class="a" d="M1456.924,868.225c-.171,32.091-20.441,61.788-50.787,72.808a78.434,78.434,0,0,1-86.58-23.44c-20.839-24.991-23.357-61.676-6.576-89.449,16.727-27.683,50.027-42.448,81.782-35.938a77.267,77.267,0,0,1,62.161,76.019c.026,4.846,7.561,4.856,7.535,0a86.03,86.03,0,0,0-55.926-79.929c-33.366-12.327-72.344-1.654-94.827,25.866-22.535,27.583-25.72,67.346-7.232,97.946a85.992,85.992,0,0,0,89.874,39.483c34.295-6.828,61.872-35.594,67.072-70.2a91.883,91.883,0,0,0,1.039-13.17C1464.485,863.376,1456.95,863.37,1456.924,868.225Z"/><path class="a" d="M1379.426,841.942a3.173,3.173,0,1,0,2.645,3.129A2.918,2.918,0,0,0,1379.426,841.942Z"/><path class="a" d="M1394.394,828.578a16.744,16.744,0,1,0-30.03,0,3.206,3.206,0,0,0,.54,6.366h2.83l3.168,40.228a4.329,4.329,0,0,0,3.25,3.651c.646,2.426,2.14,4.46,5.333,4.46s4.677-2.021,5.326-4.437a4.332,4.332,0,0,0,3.337-3.641l3.084-40.227,2.616.01a3.245,3.245,0,0,0,3.208-3.251A3.206,3.206,0,0,0,1394.394,828.578Zm-14.968,9.921c3.07,0,5.558,2.942,5.558,6.572s-2.488,6.571-5.558,6.571-5.559-2.942-5.559-6.571S1376.356,838.5,1379.426,838.5Z"/><path class="a" d="M1358.623,921.405a1.44,1.44,0,0,1,1.524,1.557,1.529,1.529,0,0,1-1.524,1.669h-18.74c-1.565,0-2.471-.742-2.471-2.225a9.877,9.877,0,0,1,1.565-4.227c1.483-2.557,3.954-4.856,7.825-7.118l2.843-1.668c4.036-2.373,5.766-3.818,5.766-6.636,0-2.743-2.554-4.449-6.426-4.449-4.819,0-6.342,2.484-7.084,5.079a1.724,1.724,0,0,1-1.812,1.149,3.561,3.561,0,0,1-.618-.036c-.906-.186-1.565-.705-1.565-1.521a2.554,2.554,0,0,1,.083-.556,9.274,9.274,0,0,1,2.718-4.522c1.853-1.632,4.448-2.67,8.485-2.67,6.26,0,10.255,2.929,10.255,7.637,0,4.524-3.172,6.562-6.92,8.676l-2.718,1.482c-4.572,2.6-7.208,5.043-8.2,8.379Z"/><path class="a" d="M1358.624,925.687h-18.741c-2.175,0-3.527-1.258-3.527-3.281a11.012,11.012,0,0,1,1.721-4.779c1.6-2.769,4.212-5.152,8.193-7.477l2.84-1.668c4.167-2.449,5.245-3.626,5.245-5.725,0-2.5-2.773-3.393-5.369-3.393-4.251,0-5.43,2.073-6.07,4.313a2.748,2.748,0,0,1-2.827,1.915,4.473,4.473,0,0,1-.8-.052,2.687,2.687,0,0,1-2.437-2.561,3.491,3.491,0,0,1,.107-.782,10.326,10.326,0,0,1,3.043-5.081c2.25-1.981,5.254-2.941,9.191-2.941,6.871,0,11.311,3.412,11.311,8.693,0,5.39-4.135,7.722-7.457,9.6l-2.732,1.49c-3.856,2.19-6.048,4.125-7.161,6.4h15.471a2.484,2.484,0,0,1,2.579,2.613A2.567,2.567,0,0,1,1358.624,925.687Zm-9.638-28.434c4.544,0,7.481,2.16,7.481,5.5,0,3.582-2.49,5.314-6.287,7.546l-2.843,1.669c-3.654,2.134-6.019,4.275-7.446,6.737a9.081,9.081,0,0,0-1.423,3.7c0,.592.109,1.169,1.415,1.169h18.741c.387,0,.468-.333.468-.613,0-.463-.222-.5-.468-.5H1340.2l.4-1.356c1.015-3.425,3.612-6.116,8.687-9l2.734-1.491c3.724-2.1,6.369-3.89,6.369-7.749,0-4.059-3.524-6.581-9.2-6.581-3.449,0-5.923.764-7.787,2.406a8.166,8.166,0,0,0-2.394,3.994,1.866,1.866,0,0,0-.049.292c0,.315.552.452.721.486a2.79,2.79,0,0,0,.406.016c.681,0,.772-.3.8-.4C1341.6,900.588,1343.223,897.253,1348.986,897.253Z"/><path class="a" d="M1368.388,917.4c-1.359,0-2.266-.667-2.266-1.965a4.167,4.167,0,0,1,1.277-2.966l12.562-15.422a3.765,3.765,0,0,1,3.419-1.817c1.4,0,2.306.593,2.306,2.077v17.053h3.872a1.378,1.378,0,0,1,1.565,1.483,1.447,1.447,0,0,1-1.565,1.557h-3.872v5.932c0,1.075-.782,1.52-1.894,1.52s-1.854-.445-1.854-1.483V917.4Zm3.047-4.634a19.156,19.156,0,0,1-1.606,1.668c.907-.074,1.9-.074,2.595-.074h9.514v-9.528c0-1.742.124-4.078.33-6.117-.948,1.409-1.895,2.781-3.171,4.375Z"/><path class="a" d="M1383.792,925.909c-2.145,0-2.909-1.312-2.909-2.539v-4.913h-12.5c-2.017,0-3.321-1.186-3.321-3.021a5.17,5.17,0,0,1,1.522-3.641l12.554-15.414a4.785,4.785,0,0,1,4.237-2.206c2.106,0,3.362,1.172,3.362,3.133v16h2.816a2.419,2.419,0,0,1,2.621,2.539,2.5,2.5,0,0,1-2.621,2.613h-2.816v4.876C1386.742,924.578,1385.967,925.909,1383.792,925.909Zm-16.593-10.2c.058.3.289.636,1.189.636h14.606v7.024c0,.2,0,.427.8.427.839,0,.839-.257.839-.464v-6.987h4.927c.338,0,.51-.078.51-.5,0-.284,0-.427-.51-.427h-4.927V897.308c0-.545-.082-.968-1.057-1.016l-.256,2.53c-.2,1.98-.324,4.283-.324,6.011v10.584h-10.57c-.694,0-1.645,0-2.509.071Zm15.39-19.363c-.71.135-1.12.515-1.806,1.364l-12.565,15.426a3.155,3.155,0,0,0-1.04,2.3c0,.025,0,.052,0,.08l1.919-1.842a18.392,18.392,0,0,0,1.515-1.568l7.656-9.67c1.3-1.62,2.253-3.016,3.124-4.309Zm-1.647,6.087c-.317.422-.656.861-1.021,1.317l-7.565,9.554h8.527v-8.472C1380.883,904.109,1380.9,903.289,1380.942,902.434Z"/><path class="a" d="M1407.892,923.79c0,.581-.479.861-1.1.861-.646,0-1.077-.28-1.077-.861V916.9c0-1.831-.837-2.842-2.632-2.842a3.987,3.987,0,0,0-3.182,1.507,3.218,3.218,0,0,0-.861,2.2v6.03c0,.581-.407.861-1.029.861-.671,0-1.125-.28-1.125-.861V908.458c0-.56.454-.84,1.125-.84.622,0,1.029.259,1.029.84v5.4a9.964,9.964,0,0,1-.144,1.1,4.711,4.711,0,0,1,4.618-2.67c2.847,0,4.379,1.551,4.379,4.2Z"/><path class="a" d="M1406.791,925.707a1.92,1.92,0,0,1-2.133-1.917V916.9c0-1.488-.6-1.787-1.576-1.787a2.935,2.935,0,0,0-2.371,1.128,2.181,2.181,0,0,0-.616,1.52v6.03a1.9,1.9,0,0,1-2.085,1.917,1.944,1.944,0,0,1-2.18-1.917V908.458a1.935,1.935,0,0,1,2.18-1.9,1.886,1.886,0,0,1,2.085,1.9V912.1a6.44,6.44,0,0,1,3.418-.869c3.4,0,5.435,1.965,5.435,5.255v7.3A1.959,1.959,0,0,1,1406.791,925.707Zm.045-1.917Zm-.066-.2c.022,0,.046,0,.066,0v-7.1a2.826,2.826,0,0,0-1.273-2.7,3.88,3.88,0,0,1,1.207,3.106Zm-8.829,0,.042,0v-4.567l-.042.081Zm0-14.917v5.559a3.194,3.194,0,0,0,.042-.372v-5.189Z"/><path class="a" d="M1413.373,913.3c0-.56.455-.84,1.125-.84.6,0,1.077.28,1.077.84v.474a8.43,8.43,0,0,1-.144,1.012,3.971,3.971,0,0,1,3.661-2.433,4.4,4.4,0,0,1,.526-.022,4.7,4.7,0,0,1,.958.107c.55.065.765.367.765.776a2.15,2.15,0,0,1-.048.366.977.977,0,0,1-.933.839.744.744,0,0,1-.215-.021,5.305,5.305,0,0,0-1.149-.129,3.2,3.2,0,0,0-2.416,1.184,3.653,3.653,0,0,0-1.005,2.391v5.943c0,.581-.479.861-1.077.861-.67,0-1.125-.28-1.125-.861Z"/><path class="a" d="M1414.5,925.707a1.944,1.944,0,0,1-2.18-1.917V913.3a1.935,1.935,0,0,1,2.18-1.895,2.167,2.167,0,0,1,1.764.771,5.261,5.261,0,0,1,2.756-.877,5.552,5.552,0,0,1,1.724.1,1.786,1.786,0,0,1,1.655,1.819,2.976,2.976,0,0,1-.066.559,2.021,2.021,0,0,1-1.971,1.7,1.8,1.8,0,0,1-.451-.047,4.263,4.263,0,0,0-.913-.1,2.148,2.148,0,0,0-1.619.82,2.615,2.615,0,0,0-.747,1.727v5.915A1.945,1.945,0,0,1,1414.5,925.707Zm-.069-2.114a.893.893,0,0,0,.09,0v-3.3l-.09.243Zm0-10.072v.853l.024-.132a3.436,3.436,0,0,0,.066-.465v-.258Zm5.962-.145.056.013A.566.566,0,0,0,1420.391,913.376Z"/></g><text class="b" transform="translate(753.5 550)"><tspan x="-59.548" y="0">NT.160</tspan><tspan y="0">元</tspan></text></g></svg>