<svg xmlns="http://www.w3.org/2000/svg" width="170.001" height="225" viewBox="0 0 170.001 225"><defs><style>.a,.b{fill:#5cade1;}.b{stroke:#5cade1;font-size:25px;font-family:TaipeiSansTCBeta-Bold, Taipei Sans TC Beta;font-weight:700;letter-spacing:0.05em;}</style></defs><g transform="translate(-1082 -329)"><g transform="translate(-540.674 -454.216)"><path class="a" d="M1785.139,868.225c-.171,32.091-20.44,61.788-50.786,72.808a78.434,78.434,0,0,1-86.58-23.44c-20.839-24.991-23.357-61.676-6.577-89.449,16.727-27.683,50.028-42.448,81.783-35.938a77.267,77.267,0,0,1,62.16,76.019c.026,4.846,7.561,4.856,7.536,0a86.031,86.031,0,0,0-55.926-79.929c-33.366-12.327-72.344-1.654-94.828,25.866-22.534,27.583-25.72,67.346-7.231,97.946a85.991,85.991,0,0,0,89.873,39.483c34.3-6.828,61.873-35.594,67.072-70.2a91.761,91.761,0,0,0,1.04-13.17C1792.7,863.376,1785.165,863.37,1785.139,868.225Z"/><path class="a" d="M1707.641,842.017a3.163,3.163,0,1,0,2.639,3.119A2.909,2.909,0,0,0,1707.641,842.017Z"/><path class="a" d="M1722.569,828.69a16.7,16.7,0,1,0-29.949,0,3.2,3.2,0,0,0,.539,6.348h2.823l3.158,40.113a4.318,4.318,0,0,0,3.242,3.641c.644,2.419,2.134,4.447,5.319,4.447s4.664-2.015,5.311-4.424a4.319,4.319,0,0,0,3.328-3.631l3.076-40.113,2.609.01a3.236,3.236,0,0,0,3.2-3.241A3.2,3.2,0,0,0,1722.569,828.69Zm-14.928,9.893c3.062,0,5.544,2.934,5.544,6.553s-2.482,6.554-5.544,6.554-5.543-2.934-5.543-6.554S1704.58,838.583,1707.641,838.583Z"/><path class="a" d="M1677.638,911.167a1.629,1.629,0,0,1,0-3.253l2.193.073h.325c4.1,0,6.661-1.937,6.661-5.118,0-2.924-2.436-4.642-6.336-4.642-3.615,0-5.483,1.353-6.458,3.692a1.6,1.6,0,0,1-1.543.914,3.76,3.76,0,0,1-.934-.147c-.772-.218-1.3-.693-1.3-1.352a1.326,1.326,0,0,1,.162-.658c1.219-2.741,3.94-5.41,10.236-5.41,5.97,0,9.991,2.888,9.991,7.348,0,3.618-1.99,5.958-6.011,6.835,4.711.585,6.986,3.108,6.986,7.311,0,4.825-4.224,8.151-11.292,8.151-6.132,0-9.544-2.339-11.007-5.665a1.322,1.322,0,0,1-.162-.658c0-.7.569-1.243,1.463-1.462a3.347,3.347,0,0,1,.812-.11,1.748,1.748,0,0,1,1.665,1.06c1.056,2.376,3.127,3.8,7.311,3.8,4.265,0,7.311-2.047,7.311-5.41,0-3.473-2.762-5.337-7.6-5.337h-.244Z"/><path class="a" d="M1680.318,925.956c-7.566,0-10.672-3.39-11.945-6.252a2.371,2.371,0,0,1-.267-1.116,2.663,2.663,0,0,1,2.257-2.476,4.334,4.334,0,0,1,1.061-.14,2.8,2.8,0,0,1,2.6,1.638c.679,1.523,2,3.224,6.377,3.224,3.807,0,6.267-1.714,6.267-4.366,0-3.549-3.563-4.294-6.551-4.294h-.244l-2.208.037a2.422,2.422,0,0,1-1.808-.67,2.8,2.8,0,0,1-.806-2.019,2.75,2.75,0,0,1,.8-1.979,2.433,2.433,0,0,1,1.826-.672l2.19.073h.291c3.518,0,5.618-1.523,5.618-4.074,0-3.247-3.7-3.6-5.293-3.6-2.96,0-4.6.912-5.494,3.05a2.648,2.648,0,0,1-2.507,1.556,4.751,4.751,0,0,1-1.195-.18,2.54,2.54,0,0,1-2.082-2.363,2.337,2.337,0,0,1,.268-1.119c1.785-3.976,5.545-5.993,11.173-5.993,6.6,0,11.034,3.373,11.034,8.392a7.2,7.2,0,0,1-3.612,6.652c3.016,1.3,4.588,3.839,4.588,7.494C1692.654,922.346,1687.812,925.956,1680.318,925.956Zm-8.894-7.9a2.351,2.351,0,0,0-.554.077c-.4.1-.677.285-.677.451a.28.28,0,0,0,.032.153l.042.084c1.451,3.3,4.927,5.043,10.051,5.043,6.322,0,10.249-2.724,10.249-7.108,0-3.767-1.93-5.761-6.072-6.275l-6.064-.753,5.97-1.3c3.492-.762,5.19-2.664,5.19-5.815,0-3.829-3.512-6.3-8.947-6.3-4.746,0-7.869,1.612-9.282,4.79l-.041.083a.268.268,0,0,0-.031.151c0,.1.2.252.541.348a2.785,2.785,0,0,0,.649.107c.409,0,.524-.164.607-.332,1.188-2.856,3.616-4.273,7.394-4.273,4.553,0,7.381,2.178,7.381,5.685,0,3.743-3.025,6.162-7.706,6.162h-.325l-2.228-.073a.432.432,0,0,0-.3.088.685.685,0,0,0-.161.476.745.745,0,0,0,.167.516.329.329,0,0,0,.295.086h.021l2.495-.036c5.49,0,8.639,2.325,8.639,6.381,0,3.86-3.358,6.454-8.355,6.454-4.3,0-6.925-1.4-8.265-4.422A.689.689,0,0,0,1671.424,918.06Z"/><path class="a" d="M1721.831,910.034c0,9.687-4.1,14.8-11.575,14.8-7.677,0-11.616-5.082-11.616-14.878,0-9.541,4.1-14.658,11.656-14.658C1717.688,895.3,1721.831,900.165,1721.831,910.034ZM1702.538,910c0,7.713,2.559,11.7,7.718,11.7s7.676-3.984,7.676-11.7c0-7.567-2.477-11.551-7.636-11.551C1705.179,898.447,1702.538,902.321,1702.538,910Z"/><path class="a" d="M1710.256,925.883c-5.776,0-12.66-2.762-12.66-15.922,0-10.125,4.51-15.7,12.7-15.7,8.112,0,12.579,5.6,12.579,15.775C1722.875,920.254,1718.393,925.883,1710.256,925.883Zm.04-29.536c-8.771,0-10.612,7.4-10.612,13.614,0,9.18,3.557,13.834,10.572,13.834,8.7,0,10.531-7.483,10.531-13.761C1720.787,900.952,1717.258,896.347,1710.3,896.347Zm-.04,26.392c-4,0-8.761-2.21-8.761-12.741,0-10.41,4.786-12.595,8.8-12.595,3.96,0,8.68,2.185,8.68,12.595C1718.976,915.81,1717.463,922.739,1710.256,922.739Zm.04-23.248c-4.518,0-6.714,3.437-6.714,10.507,0,10.653,5.023,10.653,6.674,10.653s6.632,0,6.632-10.653C1716.888,899.491,1711.926,899.491,1710.3,899.491Z"/><path class="a" d="M1746.036,922.8c0,1.359-.732,1.932-2.194,1.932H1731.43c-1.463,0-2.2-.573-2.2-1.932V909.13c0-1.38.732-1.954,2.2-1.954h12.412c1.462,0,2.194.574,2.194,1.954Zm-1.887-7.941v-5.435c0-.488-.284-.637-.8-.637h-11.42c-.52,0-.8.149-.8.637v5.435Zm-13.026,7.623c0,.488.283.637.8.637h11.42c.519,0,.8-.149.8-.637v-6.03h-13.026Z"/><path class="a" d="M1743.841,925.779H1731.43c-2.818,0-3.238-1.865-3.238-2.976V909.13c0-1.119.42-3,3.238-3h12.411c2.818,0,3.239,1.879,3.239,3V922.8C1747.08,923.914,1746.659,925.779,1743.841,925.779Zm-12.718-3.294,1.044.006v-.006Zm1.044-.407H1743.1V917.5h-10.937Zm0-8.259H1743.1v-3.985h-10.937Z"/></g><text class="b" transform="translate(1167 550)"><tspan x="-59.548" y="0">NT.445</tspan><tspan y="0">元</tspan></text></g></svg>